{"title":"Miss.Bala.2011.DVDRip.AC3.HORiZON-ArtSubs","uid":6969126,"size":2070440369,"categoryP":"video","categoryS":"movies","magnet":"?xt=urn:btih:9cfa8b4a92d39df3880d84cc08e9a16c1988b0bc&amp;dn=Miss.Bala.2011.DVDRip.AC3.HORiZON-ArtSubs&amp;tr=udp%3A%2F%2Ftracker.openbittorrent.com%3A80&amp;tr=udp%3A%2F%2Fopen.demonii.com%3A1337&amp;tr=udp%3A%2F%2Ftracker.coppersurfer.tk%3A6969&amp;tr=udp%3A%2F%2Fexodus.desync.com%3A6969","seeders":1,"leechers":0,"uploader":"lletaif","files":3,"time":1327028932,"description":"Title: Miss Bala (2011)\n\nDirector: Gerardo Naranjo\n\nWriters: Gerardo Naranjo, Mauricio Katz\n\nStars: Stephanie Sigman, Noe Hernandez and Irene Azuela\n\nLanguage: Spanish\n\nSubtitle: Spanish and English\n\nPlot: The story of a young woman clinging on to her dream to become a beauty contest queen in a Mexico dominated by organized crime. Representative of Mexico in the Oscar race for Best Foreign Film 2012.\n\nImdb: http://www.imdb.com/title/tt1911600/\n\nRip Specs: General\nComplete name                    : Miss.Bala.2011.DVDRip.AC3.HORiZON-ArtSubs\nFormat                           : AVI\nFormat/Info                      : Audio Video Interleave\nFile size                        : 1.92 GiB\nDuration                         : 1h 52mn\nOverall bit rate                 : 2 432 Kbps\nWriting application              : FairUse Wizard - http://fairusewizard.com\nWriting library                  : The best and REALLY easy backup tool\n\nVideo\nID                               : 0\nFormat                           : MPEG-4 Visual\nFormat profile                   : Advanced Simple@L5\nFormat settings, BVOP            : 1\nFormat settings, QPel            : No\nFormat settings, GMC             : No warppoints\nFormat settings, Matrix          : Default (MPEG)\nMuxing mode                      : Packed bitstream\nCodec ID                         : XVID\nCodec ID/Hint                    : XviD\nDuration                         : 1h 52mn\nBit rate                         : 1 974 Kbps\nWidth                            : 672 pixels\nHeight                           : 288 pixels\nDisplay aspect ratio             : 2.35:1\nFrame rate                       : 23.976 fps\nColor space                      : YUV\nChroma subsampling               : 4:2:0\nBit depth                        : 8 bits\nScan type                        : Progressive\nCompression mode                 : Lossy\nBits/(Pixel*Frame)               : 0.425\nStream size                      : 1.56 GiB (81%)\nWriting library                  : XviD 1.2.0.dev47 (UTC 2006-11-01)\n\nAudio\nID                               : 1\nFormat                           : AC-3\nFormat/Info                      : Audio Coding 3\nMode extension                   : CM (complete main)\nCodec ID                         : 2000\nDuration                         : 1h 52mn\nBit rate mode                    : Constant\nBit rate                         : 448 Kbps\nChannel(s)                       : 6 channels\nChannel positions                : Front: L C R, Side: L R, LFE\nSampling rate                    : 48.0 KHz\nBit depth                        : 16 bits\nCompression mode                 : Lossy\nStream size                      : 362 MiB (18%)\nAlignment                        : Split accross interleaves\nInterleave, duration             : 42 ms (1.00 video frame)\nInterleave, preload duration     : 500 ms\n","torrent":{"xt":"urn:btih:9cfa8b4a92d39df3880d84cc08e9a16c1988b0bc","amp;dn":"Miss.Bala.2011.DVDRip.AC3.HORiZON-ArtSubs","amp;tr":["udp%3A%2F%2Ftracker.openbittorrent.com%3A80","udp%3A%2F%2Fopen.demonii.com%3A1337","udp%3A%2F%2Ftracker.coppersurfer.tk%3A6969","udp%3A%2F%2Fexodus.desync.com%3A6969"],"infoHash":"9cfa8b4a92d39df3880d84cc08e9a16c1988b0bc","infoHashBuffer":{"type":"Buffer","data":[156,250,139,74,146,211,157,243,136,13,132,204,8,233,161,108,25,136,176,188]},"announce":[],"urlList":[]}}